<?xml version="1.0" encoding="UTF-8"?><svg id="Layer_3" xmlns="http://www.w3.org/2000/svg" viewBox="0 0 80 80"><defs><style>.cls-1{fill:#fff;stroke:#000;stroke-miterlimit:10;stroke-width:8px;}</style></defs><path class="cls-1" d="M39.84,11c2.76-.08,4.98,3.22,3.87,5.73-1.12,2.51-5.07,3.08-6.86.99-1.79-2.09-.69-6.61,3-6.72Z"/><path class="cls-1" d="M39.84,61c2.76-.08,4.98,3.22,3.87,5.73-1.12,2.51-5.07,3.08-6.86.99-1.79-2.09-.69-6.61,3-6.72Z"/><path class="cls-1" d="M39.84,36c2.76-.08,4.98,3.22,3.87,5.73-1.12,2.51-5.07,3.08-6.86.99-1.79-2.09-.69-6.61,3-6.72Z"/></svg>