<?xml version="1.0" encoding="UTF-8"?><svg id="Layer_3" xmlns="http://www.w3.org/2000/svg" viewBox="0 0 80 80"><defs><style>.cls-1{fill:none;stroke:#000;stroke-miterlimit:10;stroke-width:8px;}</style></defs><polygon points="42.24 75.07 68.33 74.69 68.28 66.69 49.79 67.02 42.24 75.07"/><path class="cls-1" d="M16.9,52.24c-5.36,2.05-7.25,12.42-3.1,15.58,4.14,3.16,13.21,3.27,13.21,3.27,0,0-1.38-1.2-1.74-5.79-.23-2.89.76-6.49.76-8.61"/><path class="cls-1" d="M16.51,51.4s7.22-10.73,8-10.9,10.46,8.94,10.03,11.43c-.03.2-7.99,5.26-7.99,5.26l-10.04-5.79Z"/><path class="cls-1" d="M27.65,39.77s11.38-13.89,29.42-27.63c3.91-2.98,14.44-4.48,7.81,3.76-11.16,13.88-22.77,26-30.26,33.47"/></svg>