<?xml version="1.0" encoding="UTF-8"?><svg id="oakd_lineicons" xmlns="http://www.w3.org/2000/svg" viewBox="0 0 80 80"><defs><style>.cls-1{fill:none;stroke:#000;stroke-miterlimit:10;stroke-width:8px;}</style></defs><path class="cls-1" d="M14,70.832531c-3.389517-3.270784,2.010207-9.320074,2.649458-18.653955s-.092453-18.681568,2.423725-27.150588c3.754368-12.636553,10.286943-14.607782,21.653441-14.67426,11.685022-.068341,17.978845,2.478977,21.363123,15.540266,2.160189,8.337038,1.134946,17.95076,1.569656,27.05781.43471,9.107055,5.552926,14.617952,2.329372,17.707435-2.860691,2.741713-11.360032-3.91686-15.319692-4.063952-2.877952-.106909-7.617335,4.577039-10.491637,4.757119-2.712362.169934-7.106056-4.515064-9.819692-4.663286-4.212311-.230081-13.322066,7.072761-16.357755,4.143411Z"/><line class="cls-1" x1="31.89314" y1="29.534317" x2="31.60686" y2="40.699272"/><line class="cls-1" x1="48.39314" y1="29.534317" x2="48.10686" y2="40.699272"/></svg>