<?xml version="1.0" encoding="UTF-8"?><svg id="Layer_3" xmlns="http://www.w3.org/2000/svg" viewBox="0 0 80 80"><defs><style>.cls-1{fill:none;stroke:#000;stroke-miterlimit:10;stroke-width:8px;}</style></defs><circle class="cls-1" cx="40" cy="40" r="10"/><polygon class="cls-1" points="34.64 8 45.1 8 46.12 16.59 51.09 18.65 59.32 15.04 64.97 21.4 62.06 28.61 63.43 33.42 72 35.82 71.66 44.75 63.77 47.84 61.86 51.1 65.74 59.17 58.86 66.17 51.05 62.41 47.35 63.99 44.59 72 34.84 72 32.38 64.29 28.09 62.11 21.16 66 14.05 59.34 17.87 52.46 16.28 47.22 8.12 45.04 8 35.86 15.58 33.27 18.1 27.91 14.11 21.08 20.39 14.55 28.09 18.08 32.55 16.08 34.64 8"/></svg>