<?xml version="1.0" encoding="UTF-8"?><svg id="Layer_3" xmlns="http://www.w3.org/2000/svg" viewBox="0 0 80 80"><defs><style>.cls-1{fill:none;stroke:#000;stroke-miterlimit:10;stroke-width:8px;}</style></defs><path class="cls-1" d="M33.07,63.77c3.05.11,6.19-.08,9.26-.37,1.53-.21,3.59-.46,5.84-.79"/><path class="cls-1" d="M66.98,47.1c4.19-17.47-5.64-39.09-25.96-37.86-24.09-.76-34.63,19.27-28.55,40.79.59,1.98,1.37,3.69,2.3,5.16"/><path class="cls-1" d="M47.83,49.03s.14,11.32.21,16.98c4.58,1.41,12.15,4.73,12.15,4.73l10.84-7.99-.26-14.35-12.12-6-10.82,6.64Z"/><path class="cls-1" d="M13.64,42.98l.29,22.81s4.9,4.69,9.57,4.62c4.66-.07,11.59-3.12,11.59-3.12l.35-24.31s-1.69-5.5-10.38-6.48c-8.69-.98-11.41,6.48-11.41,6.48Z"/></svg>