<?xml version="1.0" encoding="UTF-8"?><svg id="Layer_3" xmlns="http://www.w3.org/2000/svg" viewBox="0 0 80 80"><defs><style>.cls-1{fill:none;stroke:#000;stroke-miterlimit:10;stroke-width:8px;}</style></defs><polygon class="cls-1" points="22.198675 22.843168 22.927594 57.79101 55 57.534041 55 22.07226 22.198675 22.843168"/><polyline class="cls-1" points="56 39.79101 62.378681 39.79101 68.160703 45.79101 72 45.80198"/><polyline class="cls-1" points="57 24.79101 62.799211 24.79101 68.581233 30.79101 73 30.80198"/><polyline class="cls-1" points="56 53.79101 62.378681 53.79101 68.160703 59.79101 72 59.80198"/><polyline class="cls-1" points="22 39.79101 15.527046 39.79101 9.745024 45.79101 5 45.80198"/><polyline class="cls-1" points="22 26.79101 15.606516 26.79101 9.824494 32.79101 6 32.80198"/><polyline class="cls-1" points="22 53.79101 16.027046 53.79101 10.245024 59.79101 6 59.80198"/><line class="cls-1" x1="26" y1="55.79101" x2="25.909658" y2="71.79101"/><line class="cls-1" x1="39" y1="55.79101" x2="38.909658" y2="71.79101"/><line class="cls-1" x1="53" y1="54.79101" x2="52.909658" y2="71.79101"/><line class="cls-1" x1="27" y1="8.79101" x2="26.909658" y2="24.79101"/><line class="cls-1" x1="53" y1="8.79101" x2="52.909658" y2="24.79101"/><line class="cls-1" x1="39" y1="8.79101" x2="38.909658" y2="24.79101"/></svg>