<?xml version="1.0" encoding="UTF-8"?><svg id="Layer_3" xmlns="http://www.w3.org/2000/svg" viewBox="0 0 80 80"><defs><style>.cls-1{fill:#fff;}.cls-1,.cls-2,.cls-3{stroke-miterlimit:10;stroke-width:8px;}.cls-1,.cls-3{stroke:#000;}.cls-2{stroke:#858585;}.cls-2,.cls-3{fill:none;}</style></defs><path class="cls-2" d="M24.5728,32.4334c3.3197-1.225,6.7004-2.4655,10.3914-2.9735,7.523-1.0354,15.4098,1.1849,21.0927,4.7447"/><path class="cls-1" d="M19.3584,26.3369c7.1764,11.1924,14.1779,22.5281,21,34"/><path class="cls-1" d="M61.7446,27.9344c-7.828,10.4299-14.8559,21.4739-21,33"/><path class="cls-3" d="M15.3377,13.0977c-2.9145-1.0471-6.4817.9524-7.254,4.0659-.2425.9776-.2375,2.0154-.0275,3.0011.6175,2.8977,3.1742,5.247,6.0134,5.4381s5.6986-1.8515,6.4808-4.7055c.7822-2.8541-.6733-6.1688-5.2127-7.7996Z"/><path class="cls-3" d="M68.3377,15.0977c-2.9145-1.0471-6.4817.9524-7.254,4.0659-.2425.9776-.2375,2.0154-.0275,3.0011.6175,2.8977,3.1742,5.247,6.0134,5.4381s5.6986-1.8515,6.4808-4.7055c.7822-2.8541-.6733-6.1688-5.2127-7.7996Z"/><path class="cls-3" d="M42.3377,58.0977c-2.9145-1.0471-6.4817.9524-7.254,4.0659-.2425.9776-.2375,2.0154-.0275,3.0011.6175,2.8977,3.1742,5.247,6.0134,5.4381,2.8392.1911,5.6986-1.8515,6.4808-4.7055.7822-2.8541-.6733-6.1688-5.2127-7.7996Z"/></svg>