<?xml version="1.0" encoding="UTF-8"?><svg id="Layer_3" xmlns="http://www.w3.org/2000/svg" viewBox="0 0 80 80"><defs><style>.cls-1{fill:none;stroke:#000;stroke-miterlimit:10;stroke-width:8px;}</style></defs><path class="cls-1" d="M19.81,60.31c-2.19,3.12-2.11,5.37,2.17,7.58,17.43,9.03,46.72-9.02,46.77-34.62-1.38-25.67-28.34-28.76-42.26-16.8-13.17,11.51-18.43,27.91-13.3,30.28,4.87,2.25,10.51-8.38,13.95-.91,1.13,3.84-3.56,9.68-7.33,14.47Z"/><path class="cls-1" d="M54.42,25.01c-2.01-1.42-6.16-3.46-6.16-3.46"/><path class="cls-1" d="M42.29,21.03c-2.32.81-6.4,2.99-6.4,2.99"/><path class="cls-1" d="M56.99,37.2c-.38-2.43-1.79-6.84-1.79-6.84"/><path class="cls-1" d="M51.64,48.23c1.56-1.9,3.91-5.89,3.91-5.89"/><path class="cls-1" d="M42.76,54.89c2.11-1.26,5.67-4.22,5.67-4.22"/><path class="cls-1" d="M32.6,27.29c-1.91,1.55-5.01,4.99-5.01,4.99"/></svg>