<?xml version="1.0" encoding="UTF-8"?><svg id="Layer_3" xmlns="http://www.w3.org/2000/svg" viewBox="0 0 80 80"><defs><style>.cls-1,.cls-2{fill:none;stroke:#000;stroke-miterlimit:10;stroke-width:8px;}.cls-2{stroke-linecap:round;}</style></defs><path class="cls-1" d="M12.91,53.71c-3.42-7.98-4.35-16.98-2.61-25.47,1.11-5.43,3.42-10.84,7.69-14.47,2.54-2.16,5.66-3.59,8.88-4.58,10.27-3.18,25.47,2.52,32.78,10.27.19.21.13.23,0,.48-4.16,8.69-12.03,20.91-21.07,26.01-9.05,5.09-19.48,7.44-25.68,7.77Z"/><path class="cls-2" d="M55.04,28.89c1.24-.17,2.51-.33,3.74-.06s2.4,1.08,2.73,2.27c.56,2.02-1.46,4.27-.49,6.14.69,1.33,2.52,1.62,4.02,1.38,1.5-.24,2.97-.86,4.48-.71,1.57.16,3.01,1.21,3.62,2.64s.34,3.17-.66,4.37"/><path class="cls-2" d="M41.93,43.69c1.71-.34,3.5-.67,5.19-.24,1.69.43,3.26,1.86,3.2,3.57-.05,1.46-1.18,2.62-2.12,3.76-.93,1.14-1.75,2.69-1.1,4,.81,1.63,3.15,1.62,4.97,1.29,1.58-.29,3.19-.64,4.78-.43s3.21,1.1,3.75,2.58c1.41,3.9-5.19,7.25-4.03,11.22"/><path class="cls-2" d="M35.85,72.28c-3.75.2-6.54-3.97-4.84-7.25,1.1-2.21,4.35-4.22,3.19-6.98-2.49-3.52-8.16-.8-7.88-6.9"/></svg>