<?xml version="1.0" encoding="UTF-8"?><svg id="oakd_lineicons" xmlns="http://www.w3.org/2000/svg" viewBox="0 0 80 80"><defs><style>.cls-1{fill:none;stroke:#000;stroke-miterlimit:10;stroke-width:8px;}</style></defs><path class="cls-1" d="M5.25,66.898283c9.552239-.065392,8.165624-6.799776,17.101378-6.807019,9.285888-.007527,8.537278,6.98147,17.238189,7.028386,9.855101.053139,8.814708-6.809942,17.785433-6.862361,9.30978-.0544,8.097968,7.100715,17.375,6.862361"/><path class="cls-1" d="M5.25,53.432501c9.552239-.065392,8.165624-6.799776,17.101378-6.807019,9.285888-.007527,8.537278,6.98147,17.238189,7.028386,9.855101.053139,8.814708-6.809942,17.785433-6.862361,9.30978-.0544,8.097968,7.100715,17.375,6.862361"/><polyline class="cls-1" points="30.817216 37.790201 43.554087 12.874525 68.24452 25.825023"/><line class="cls-1" x1="36.899804" y1="25.346756" x2="42.574631" y2="44.002756"/><line class="cls-1" x1="57.088903" y1="19.205588" x2="62.099615" y2="38.0636"/></svg>