<?xml version="1.0" encoding="UTF-8"?><svg id="Layer_3" xmlns="http://www.w3.org/2000/svg" viewBox="0 0 80 80"><defs><style>.cls-1{stroke:#858585;}.cls-1,.cls-2{fill:none;stroke-miterlimit:10;stroke-width:8px;}.cls-2{stroke:#000;}</style></defs><path class="cls-1" d="M13.1319,43.8317c9.3057,3.2772,15.9496,4.7122,26.7619,4.7133,7.7681.0008,21.5899-2.6352,27.7629-7.421"/><path class="cls-1" d="M40.7223,11.0568c-5.1037,5.6063-8.0373,16.896-8.6608,25.0889-1.0568,13.8861,3.5983,25.8601,10.4723,33.4111"/><path class="cls-2" d="M43.5926,11.6021c-2.9539-.3773-8.6985.9303-11.7929,1.6835-8.0124,1.9503-13.8254,7.5155-17.4949,15.0026-4.2478,8.667-4.2772,20.0957.2927,28.5923,3.3789,6.2823,10.1761,9.9889,17.0427,11.621,5.2678,1.2521,10.8401,1.4761,16.068.0624,12.623-3.4134,19.7203-11.793,20.8636-25.5542.2846-3.4263-.3016-8.9437-1.298-12.23-1.778-5.8639-6.8538-10.9433-10.3347-13.266-3.0419-2.0298-9.7345-5.45-13.3465-5.9114Z"/></svg>