<?xml version="1.0" encoding="UTF-8"?><svg id="Layer_3" xmlns="http://www.w3.org/2000/svg" viewBox="0 0 80 80"><defs><style>.cls-1{fill:#fff;}.cls-1,.cls-2,.cls-3{stroke-miterlimit:10;stroke-width:8px;}.cls-1,.cls-3{stroke:#000;}.cls-2{stroke:#858585;}.cls-2,.cls-3{fill:none;}</style></defs><path class="cls-2" d="M24.57,32.43c3.32-1.23,6.7-2.47,10.39-2.97,7.52-1.04,15.41,1.18,21.09,4.74"/><path class="cls-1" d="M19.36,26.34c7.18,11.19,14.18,22.53,21,34"/><path class="cls-1" d="M61.74,27.93c-7.83,10.43-14.86,21.47-21,33"/><path class="cls-3" d="M15.34,13.1c-2.91-1.05-6.48.95-7.25,4.07-.24.98-.24,2.02-.03,3,.62,2.9,3.17,5.25,6.01,5.44s5.7-1.85,6.48-4.71c.78-2.85-.67-6.17-5.21-7.8Z"/><path class="cls-3" d="M68.34,15.1c-2.91-1.05-6.48.95-7.25,4.07-.24.98-.24,2.02-.03,3,.62,2.9,3.17,5.25,6.01,5.44s5.7-1.85,6.48-4.71c.78-2.85-.67-6.17-5.21-7.8Z"/><path class="cls-3" d="M42.34,58.1c-2.91-1.05-6.48.95-7.25,4.07-.24.98-.24,2.02-.03,3,.62,2.9,3.17,5.25,6.01,5.44,2.84.19,5.7-1.85,6.48-4.71.78-2.85-.67-6.17-5.21-7.8Z"/></svg>