<?xml version="1.0" encoding="UTF-8"?><svg id="Layer_3" xmlns="http://www.w3.org/2000/svg" viewBox="0 0 80 80"><defs><style>.cls-1{fill:none;stroke:#000;stroke-miterlimit:10;stroke-width:8px;}</style></defs><path class="cls-1" d="M15.0925,25.043c13.0716,9.3938,37.338,9.2639,49.4015-.3275"/><path class="cls-1" d="M15.0925,37.6853c13.0716,9.3938,37.338,9.2639,49.4015-.3275"/><path class="cls-1" d="M16.1751,50.3275c13.0716,9.3938,37.338,9.2639,49.4015-.3275"/><path class="cls-1" d="M14.4496,22.5943c.4935-10.6437,17.3561-14.1641,27.9087-13.2096,10.5526.9545,22.6833,3.8665,22.3594,13.2096"/><path class="cls-1" d="M14.4496,22.5943c-.1242,12.0182.2467,24.0098,0,37.0749,4.403,6.4779,12.8903,11.0959,27.9087,11.0959,10.3637,0,18.5273-3.1921,22.3594-9.4473.6765-13.9734-.5764-25.4594-.064-38.8841"/></svg>