<?xml version="1.0" encoding="UTF-8"?><svg id="oakd_lineicons" xmlns="http://www.w3.org/2000/svg" viewBox="0 0 80 80"><defs><style>.cls-1{fill:none;stroke:#000;stroke-miterlimit:10;stroke-width:8px;}</style></defs><path class="cls-1" d="M20.414496,71.63237l.894152-39.598477,19.328638-18.783893,18.280201,19.799239.497009,38.833132-9.585271.11763s-1.129743-17.987615-10.033806-17.385526c-8.318803.562514-7.826578,17.124984-7.826578,17.124984l-11.554345-.107088Z"/><path class="cls-1" d="M72.389272,39.787818l-12.026589-.16158s.297773-16.060649,6.72-16.126036c6.422227-.065386,6.906667,15.690197,6.906667,15.690197l.186667,32.90583-14-.314124"/><path class="cls-1" d="M7.610728,39.691589l12.026589-.16158s-.297773-16.060649-6.72-16.126036c-6.422227-.065386-6.906667,15.690197-6.906667,15.690197l-.186667,32.90583,14-.314124"/></svg>