<?xml version="1.0" encoding="UTF-8"?><svg id="oakd_lineicons" xmlns="http://www.w3.org/2000/svg" viewBox="0 0 80 80"><defs><style>.cls-1{fill:none;stroke:#000;stroke-miterlimit:10;stroke-width:8px;}</style></defs><path class="cls-1" d="M17.044314,70.797467l13.705446.32224s.012503-15.867303,7.811934-15.868888c8.223743-.001671,8.583244,16.098026,8.583244,16.098026l18.314263-.058371.320788-27.105572-48.867586-.705595.131912,27.31816Z"/><polyline class="cls-1" points="23.155209 43.767382 22.573577 29.362777 59.798025 29.362777 59.507209 43.862777"/><polyline class="cls-1" points="25.608288 28.556017 41.226446 11.476017 56.844604 28.976017"/><path class="cls-1" d="M65.351032,44.66578s8.407518.865346,8.142848-7.387635"/><path class="cls-1" d="M60.824029,29.66578s8.407518.865346,8.142848-7.387635"/><path class="cls-1" d="M14.648968,43.66578s-8.407518.865346-8.142848-7.387635"/><path class="cls-1" d="M20.081371,29.66578s-8.407518.865346-8.142848-7.387635"/></svg>