<?xml version="1.0" encoding="UTF-8"?><svg id="Layer_3" xmlns="http://www.w3.org/2000/svg" viewBox="0 0 80 80"><defs><style>.cls-1{fill:none;stroke:#000;stroke-miterlimit:10;stroke-width:8px;}</style></defs><path class="cls-1" d="M40.89,10.95c6.93.16,6.77,15.41,6.77,15.41,0,0,4.67.86,5.94,2.19,7.36,7.66,6.44,41.42-12.6,41.57s-21.26-34.1-13.8-41.95c1.32-1.39,6.21-2,6.21-2,0,0,.51-15.38,7.48-15.22Z"/><line class="cls-1" x1="40.51" y1="38.95" x2="40.87" y2="68.63"/><path class="cls-1" d="M56.94,29.45s9.43-3.22,10.97-12.46"/><path class="cls-1" d="M53.67,56.06s13.32,3.12,12.29,16.94"/><line class="cls-1" x1="58.06" y1="43.57" x2="73.28" y2="45.52"/><path class="cls-1" d="M24.12,29.45s-9.43-3.22-10.97-12.46"/><path class="cls-1" d="M27.39,56.06s-13.32,3.12-12.29,16.94"/><line class="cls-1" x1="23" y1="43.57" x2="7.78" y2="45.52"/><line class="cls-1" x1="33.51" y1="25.58" x2="48.61" y2="26.29"/></svg>