<?xml version="1.0" encoding="UTF-8"?><svg id="oakd_lineicons" xmlns="http://www.w3.org/2000/svg" viewBox="0 0 80 80"><defs><style>.cls-1{fill:none;stroke:#000;stroke-miterlimit:10;stroke-width:8px;}</style></defs><path class="cls-1" d="M39.697691,36.769624s-6.412686,25.766569-18.012942,19.154289c-11.600256-6.61228-3.721302-13.61931-3.721302-13.61931,0,0-9.480931-1.959787-3.187531-12.844032,6.2934-10.884245,24.921775,7.309052,24.921775,7.309052Z"/><path class="cls-1" d="M40.386091,36.91442s-19.10816-18.436834-7.58163-25.17681c11.526531-6.739976,13.655319,3.586913,13.655319,3.586913,0,0,6.437691-7.230834,12.717023,3.661533,6.279332,10.892367-18.790712,17.928364-18.790712,17.928364Z"/><path class="cls-1" d="M39.915974,37.437516s25.520846-7.329736,25.594572,6.022521c.073726,13.352256-9.934017,10.032397-9.934017,10.032397,0,0,3.04324,9.190621-9.529492,9.182499-12.572732-.008122-6.131063-25.237416-6.131063-25.237416Z"/><path class="cls-1" d="M30.932754,74.545996c0-6.138289-1.76393-17.547621,7.407906-23.908983"/></svg>