<?xml version="1.0" encoding="UTF-8"?><svg id="oakd_lineicons" xmlns="http://www.w3.org/2000/svg" viewBox="0 0 80 80"><defs><style>.cls-1{fill:none;stroke:#000;stroke-miterlimit:10;stroke-width:8px;}</style></defs><path class="cls-1" d="M23.183046,35.748156c-5.081552-3.263866-10.762468-12.09706-10.762468-12.09706l30.353777,9.988102s9.519114-2.597497,15.900162-2.868061c11.603823-.492015,20.61762,10.245503,10.851238,20.378649-9.766382,10.133146-26.587603-8.058433-26.587603-8.058433,0,0-14.673555-4.079331-19.755107-7.343197Z"/><line class="cls-1" x1="55.866807" y1="40.840732" x2="64.010996" y2="43.1613"/><path class="cls-1" d="M45.464533,36.365552c-3.187511-19.650341-14.827518-27.087381-14.827518-27.087381l1.73045,18.826971"/><path class="cls-1" d="M33.629435,41.835141s-4.509393,9.059412-6.133954,15.427631c-2.954236,11.580493,5.323391,22.809176,17.050554,15.014161s-1.964724-28.378792-1.964724-28.378792"/><line class="cls-1" x1="37.671137" y1="56.458928" x2="38.132386" y2="65.122094"/></svg>