<?xml version="1.0" encoding="UTF-8"?><svg id="oakd_lineicons" xmlns="http://www.w3.org/2000/svg" viewBox="0 0 80 80"><defs><style>.cls-1{fill:none;stroke:#000;stroke-miterlimit:10;stroke-width:8px;}</style></defs><line class="cls-1" x1="55.655482" y1="56.644284" x2="68.012755" y2="68.213251"/><line class="cls-1" x1="55.113497" y1="68.725152" x2="68.55474" y2="56.644284"/><line class="cls-1" x1="8.273838" y1="8.644284" x2="20.63111" y2="20.213251"/><line class="cls-1" x1="7.731852" y1="20.725152" x2="21.173096" y2="8.644284"/><line class="cls-1" x1="71.238922" y1="7.741536" x2="71.2183" y2="14.741536"/><line class="cls-1" x1="16.738922" y1="31.241536" x2="16.7183" y2="38.241536"/><line class="cls-1" x1="40.448603" y1="65.684718" x2="40.427981" y2="72.684718"/><polygon class="cls-1" points="45.563003 19.924113 43.394192 12.219963 49.99566 17.407116 54.86987 13.982244 53.77758 21.193408 59.207413 26.143752 51.942386 24.560783 52.679634 33.280017 48.000902 26.06007 39.025059 23.974851 45.563003 19.924113"/><path class="cls-1" d="M50.152387,19.799184L11.17421,64.867779s-4.050768,3.82322-.620989,7.229754c4.071104,4.043513,7.077816,1.172194,7.077816,1.172194L50.860313,27.373618"/></svg>