<?xml version="1.0" encoding="UTF-8"?><svg id="Layer_3" xmlns="http://www.w3.org/2000/svg" viewBox="0 0 80 80"><defs><style>.cls-1{fill:#fff;}.cls-1,.cls-2{stroke:#000;stroke-miterlimit:10;stroke-width:8px;}.cls-2{fill:none;}</style></defs><path class="cls-1" d="M39.6315,57.7759c2.7553-.081,4.985,3.222,3.8675,5.7293-1.1174,2.5072-5.0747,3.0803-6.8641.9941-1.7894-2.0862-.6944-6.6149,2.9965-6.7233Z"/><path class="cls-2" d="M27.2756,52.6009c1.6136-4.3191,5.0761-8.9921,12.5054-9.0609,7.5936-.0703,11.2007,4.9496,12.9101,9.5007"/><path class="cls-2" d="M18.6378,40.5084c2.4161-5.3217,8.0125-11.5391,20.9754-11.6251,13.6104-.0904,19.4092,6.9722,21.8711,12.6472"/><path class="cls-2" d="M9.491,28.64c4.0197-6.9691,12.4092-14.3026,29.9184-14.4132,18.2121-.1151,26.9332,8.0396,31.0997,15.4985"/></svg>