<?xml version="1.0" encoding="UTF-8"?><svg id="Layer_3" xmlns="http://www.w3.org/2000/svg" viewBox="0 0 80 80"><defs><style>.cls-1{fill:none;stroke:#000;stroke-miterlimit:10;stroke-width:8px;}</style></defs><path class="cls-1" d="M40.886382,10.952351c6.92932.156482,6.765489,15.411512,6.765489,15.411512,0,0,4.668505.861246,5.943263,2.18701,7.363737,7.65838,6.441975,41.415346-12.599153,41.57325s-21.261223-34.101354-13.797213-41.947269c1.318203-1.385651,6.209498-2,6.209498-2,0,0,.510637-15.381846,7.478117-15.224502Z"/><line class="cls-1" x1="41" y1="39" x2="41.359024" y2="69"/><path class="cls-1" d="M56.940797,29.454977s9.431518-3.217188,10.973737-12.460026"/><path class="cls-1" d="M53.672447,56.05924s13.319973,3.119156,12.294502,16.935711"/><line class="cls-1" x1="58.055832" y1="43.572152" x2="73.278853" y2="45.521266"/><path class="cls-1" d="M24.116908,29.454977s-9.431518-3.217188-10.973737-12.460026"/><path class="cls-1" d="M27.385258,56.05924s-13.319973,3.119156-12.294502,16.935711"/><line class="cls-1" x1="23.001874" y1="43.572152" x2="7.778853" y2="45.521266"/><line class="cls-1" x1="33.50814" y1="25.580753" x2="48.612424" y2="26.287797"/></svg>