<?xml version="1.0" encoding="UTF-8"?><svg id="Layer_3" xmlns="http://www.w3.org/2000/svg" viewBox="0 0 80 80"><defs><style>.cls-1{fill:none;stroke:#000;stroke-miterlimit:10;stroke-width:8px;}</style></defs><path class="cls-1" d="M19.8068,60.3066c-2.1867,3.1151-2.1128,5.3746,2.173,7.5842,17.4271,9.0332,46.7193-9.0205,46.7702-34.6243-1.3807-25.669-28.3366-28.7647-42.2631-16.7988-13.1733,11.5137-18.4257,27.9068-13.2988,30.2785,4.8687,2.2523,10.508-8.3829,13.9468-.9054,1.1266,3.8437-3.5578,9.6752-7.328,14.4657Z"/><path class="cls-1" d="M54.4245,25.0103c-2.0148-1.4151-6.1647-3.4582-6.1647-3.4582"/><path class="cls-1" d="M42.2937,21.0345c-2.3242.8124-6.4033,2.9935-6.4033,2.9935"/><path class="cls-1" d="M56.9887,37.1999c-.3811-2.4324-1.7931-6.8372-1.7931-6.8372"/><path class="cls-1" d="M51.6365,48.2251c1.5623-1.9029,3.9112-5.8877,3.9112-5.8877"/><path class="cls-1" d="M42.7568,54.8912c2.1134-1.2631,5.6705-4.2199,5.6705-4.2199"/><path class="cls-1" d="M32.5956,27.2866c-1.9105,1.5531-5.007,4.9893-5.007,4.9893"/></svg>