<?xml version="1.0" encoding="UTF-8"?><svg id="Layer_3" xmlns="http://www.w3.org/2000/svg" viewBox="0 0 80 80"><defs><style>.cls-1{fill:#fff;}.cls-1,.cls-2,.cls-3{stroke-miterlimit:10;stroke-width:8px;}.cls-1,.cls-3{stroke:#000;}.cls-2{stroke:#858585;}.cls-2,.cls-3{fill:none;}</style></defs><path class="cls-2" d="M34.870124,54.759995c.706072-1.450585,1.412144-13.906338,2.118217-15.356923.577826.541373,1.155652,1.082746,1.733478,1.624119.148928.139533.345076.29528.617357.292283.295349-.003252-1.017214-.547396-.886849-.709622.629445-.783286,1.25889-1.566571,1.888335-2.349856.937103.958198,1.734922,1.967396,2.380957,3.011779,1.002267-.818938.254533-1.637877,1.2568-2.456815.227288.921386.959926,1.793328,2.052258,2.442476.127831-.431616.45613-.840299.936529-1.165835.503587,1.11112.852059,13.253722,1.040377,14.401018"/><path class="cls-3" d="M35.257238,55.314316c-.735316,3.919275-1.837786,13.490387-1.223782,14.003343,1.08265.904475,14.037832,1.678842,14.849801.49312.515681-.753052-.112835-9.384755-.609268-14.010186,2.22192.123941,7.50172-.974743,11.19668-4.355826,3.798474-3.475804,5.027278-7.046488,6.0432-11.955592,2.206556-10.662427-5.295417-22.529109-16.75784-26.507691-11.462423-3.978582-25.511324.40784-31.382313,9.79835-3.962964,6.338665-4.195922,14.555908-.397376,21.185617,3.798546,6.629709,12.828941,10.738886,18.280899,11.348865Z"/><line class="cls-1" x1="35" y1="59" x2="47" y2="59.190794"/></svg>