<?xml version="1.0" encoding="UTF-8"?><svg id="oakd_lineicons" xmlns="http://www.w3.org/2000/svg" viewBox="0 0 80 80"><defs><style>.cls-1{fill:none;stroke:#000;stroke-miterlimit:10;stroke-width:8px;}</style></defs><path class="cls-1" d="M12.05236,35.952149c-.431708,1.878731,4.372721,6.186813,4.372721,6.186813,0,0-6.210561,3.819732-5.285968,6.035452s7.104935,3.295117,7.104935,3.295117c0,0-4.1165,4.776122-3.646915,6.34994.469585,1.573818,6.339786,3.646692,6.339786,3.646692,0,0-1.766767,3.665236-1.752313,5.180396.067704,7.097082,48.764683,2.964336,48.764683,2.964336l1.005462-33.845017s-11.342636-.106168-13.963222-2.624934c-15.108837-14.521793-18.991438-24.148881-22.354874-23.944982-6.943506,3.554577.116825,16.701534,1.536713,23.498286-5.476348-.216884-20.721392-2.83303-22.121008,3.257903Z"/></svg>