<?xml version="1.0" encoding="UTF-8"?><svg id="Layer_3" xmlns="http://www.w3.org/2000/svg" viewBox="0 0 80 80"><defs><style>.cls-1{fill:#fff;}.cls-1,.cls-2,.cls-3{stroke-miterlimit:10;stroke-width:8px;}.cls-1,.cls-3{stroke:#000;}.cls-2{stroke:#858585;}.cls-2,.cls-3{fill:none;}</style></defs><path class="cls-2" d="M24.572824,32.43336c3.319729-1.225039,6.700393-2.465475,10.391416-2.973482,7.522997-1.035415,15.409778,1.184851,21.092652,4.744726"/><path class="cls-1" d="M19.35842,26.336868c7.176395,11.192399,14.177851,22.52809,21,34"/><path class="cls-1" d="M61.744608,27.934374c-7.827962,10.429904-14.855942,21.473873-21,33"/><path class="cls-3" d="M15.337744,13.097732c-2.914526-1.047063-6.481744.9524-7.253965,4.065923-.242457.97756-.237542,2.015396-.027475,3.001083.617544,2.897677,3.174158,5.246952,6.013374,5.438083s5.698557-1.85148,6.480764-4.705535c.782207-2.854055-.673336-6.168759-5.212698-7.799554Z"/><path class="cls-3" d="M68.337744,15.097732c-2.914526-1.047063-6.481744.9524-7.253965,4.065923-.242457.97756-.237542,2.015396-.027475,3.001083.617544,2.897677,3.174158,5.246952,6.013374,5.438083s5.698557-1.85148,6.480764-4.705535c.782207-2.854055-.673336-6.168759-5.212698-7.799554Z"/><path class="cls-3" d="M42.337744,58.097732c-2.914526-1.047063-6.481744.9524-7.253965,4.065923-.242457.97756-.237542,2.015396-.027475,3.001083.617544,2.897677,3.174158,5.246952,6.013374,5.438083,2.839216.191131,5.698557-1.85148,6.480764-4.705535.782207-2.854055-.673336-6.168759-5.212698-7.799554Z"/></svg>