<?xml version="1.0" encoding="UTF-8"?><svg id="Layer_3" xmlns="http://www.w3.org/2000/svg" viewBox="0 0 80 80"><defs><style>.cls-1{fill:none;stroke:#000;stroke-miterlimit:10;stroke-width:8px;}</style></defs><circle class="cls-1" cx="40" cy="40" r="10"/><polygon class="cls-1" points="34.52517 8 44.978376 8 46.006561 16.586926 50.976118 18.647788 59.201591 15.041279 64.856604 21.395605 61.943416 28.608623 63.314328 33.417301 71.88253 35.82164 71.539802 44.752043 63.657056 47.843337 61.742663 51.103455 65.619183 59.167756 58.74717 66.172513 50.935395 62.405248 47.235081 63.994563 44.474529 72 34.724494 72 32.257617 64.288881 27.969951 62.110931 21.039204 65.995922 13.93225 59.344346 17.750035 52.457316 16.164186 47.218464 8 45.040514 7.88253 35.857807 15.459364 33.267813 17.984976 27.911234 13.990985 21.083067 20.275647 14.549218 27.969951 18.081028 32.433823 16.079669 34.52517 8"/></svg>