<?xml version="1.0" encoding="UTF-8"?><svg id="Layer_3" xmlns="http://www.w3.org/2000/svg" viewBox="0 0 80 80"><defs><style>.cls-1{fill:#fff;}.cls-1,.cls-2{stroke:#000;stroke-miterlimit:10;stroke-width:8px;}.cls-2{fill:none;}</style></defs><circle class="cls-2" cx="16.5" cy="19.5" r="6.5"/><path class="cls-1" d="M31.5504,18.3984c5.7829.313,18.25.2443,18.25.2443"/><path class="cls-2" d="M16.2644,35.2045c.1201,19.1253,5.5236,27.1289,31.75,26.6711"/><path class="cls-2" d="M65.3377,13.0977c-2.9145-1.0471-6.4817.9524-7.254,4.0659-.2425.9776-.2375,2.0154-.0275,3.0011.6175,2.8977,3.1742,5.247,6.0134,5.4381s5.6986-1.8515,6.4808-4.7055c.7822-2.8541-.6733-6.1688-5.2127-7.7996Z"/><path class="cls-2" d="M65.3377,55.2997c-2.9145-1.0471-6.4817.9524-7.254,4.0659-.2425.9776-.2375,2.0154-.0275,3.0011.6175,2.8977,3.1742,5.247,6.0134,5.4381s5.6986-1.8515,6.4808-4.7055c.7822-2.8541-.6733-6.1688-5.2127-7.7996Z"/></svg>