<?xml version="1.0" encoding="UTF-8"?><svg id="Layer_3" xmlns="http://www.w3.org/2000/svg" viewBox="0 0 80 80"><defs><style>.cls-1{stroke:#858585;}.cls-1,.cls-2{fill:none;stroke-miterlimit:10;stroke-width:8px;}.cls-2{stroke:#000;}</style></defs><path class="cls-1" d="M13.13,43.83c9.31,3.28,15.95,4.71,26.76,4.71,7.77,0,21.59-2.64,27.76-7.42"/><path class="cls-1" d="M40.72,11.06c-5.1,5.61-8.04,16.9-8.66,25.09-1.06,13.89,3.6,25.86,10.47,33.41"/><path class="cls-2" d="M43.59,11.6c-2.95-.38-8.7.93-11.79,1.68-8.01,1.95-13.83,7.52-17.49,15-4.25,8.67-4.28,20.1.29,28.59,3.38,6.28,10.18,9.99,17.04,11.62,5.27,1.25,10.84,1.48,16.07.06,12.62-3.41,19.72-11.79,20.86-25.55.28-3.43-.3-8.94-1.3-12.23-1.78-5.86-6.85-10.94-10.33-13.27-3.04-2.03-9.73-5.45-13.35-5.91Z"/></svg>