<?xml version="1.0" encoding="UTF-8"?><svg id="Layer_3" xmlns="http://www.w3.org/2000/svg" viewBox="0 0 80 80"><defs><style>.cls-1{fill:none;stroke:#000;stroke-miterlimit:10;stroke-width:8px;}</style></defs><path class="cls-1" d="M40.8864,10.9524c6.9293.1565,6.7655,15.4115,6.7655,15.4115,0,0,4.6685.8612,5.9433,2.187,7.3637,7.6584,6.442,41.4153-12.5992,41.5732s-21.2612-34.1014-13.7972-41.9473c1.3182-1.3857,6.2095-2,6.2095-2,0,0,.5106-15.3818,7.4781-15.2245Z"/><line class="cls-1" x1="41" y1="39" x2="41.359" y2="69"/><path class="cls-1" d="M56.9408,29.455s9.4315-3.2172,10.9737-12.46"/><path class="cls-1" d="M53.6724,56.0592s13.32,3.1192,12.2945,16.9357"/><line class="cls-1" x1="58.0558" y1="43.5722" x2="73.2789" y2="45.5213"/><path class="cls-1" d="M24.1169,29.455s-9.4315-3.2172-10.9737-12.46"/><path class="cls-1" d="M27.3853,56.0592s-13.32,3.1192-12.2945,16.9357"/><line class="cls-1" x1="23.0019" y1="43.5722" x2="7.7789" y2="45.5213"/><line class="cls-1" x1="33.5081" y1="25.5808" x2="48.6124" y2="26.2878"/></svg>