<?xml version="1.0" encoding="UTF-8"?><svg id="Layer_3" xmlns="http://www.w3.org/2000/svg" viewBox="0 0 80 80"><defs><style>.cls-1{fill:none;stroke:#000;stroke-miterlimit:10;stroke-width:8px;}</style></defs><polyline class="cls-1" points="72.67 51.84 71.27 71.29 51.67 71.74"/><polyline class="cls-1" points="7.17 28.24 8.57 8.79 28.17 8.34"/><path class="cls-1" d="M21.68,39.45s-6.63,5.23-7.62,7.77c-.9,2.3-.87,7.69.29,9.88,1.51,2.87,6.39,7.8,9.45,8.88,2.47.87,8.07,1.37,10.45.29,2.17-.99,6.76-6.76,6.76-6.76l-19.33-20.04Z"/><line class="cls-1" x1="24" y1="44.45" x2="35.4" y2="33.7"/><line class="cls-1" x1="36.59" y1="57.2" x2="48" y2="46.46"/><line class="cls-1" x1="8.19" y1="72.66" x2="19.93" y2="62.21"/><path class="cls-1" d="M59.33,40s6.48-5.3,7.62-7.77c1.04-2.24.73-7.63-.29-9.88-1.33-2.96-6.38-7.83-9.45-8.88-2.47-.84-8.07-1.37-10.45-.29-2.18.99-6.76,6.76-6.76,6.76l19.33,20.04Z"/><line class="cls-1" x1="72.82" y1="6.8" x2="61.08" y2="17.25"/></svg>