<?xml version="1.0" encoding="UTF-8"?><svg id="Layer_3" xmlns="http://www.w3.org/2000/svg" viewBox="0 0 80 80"><defs><style>.cls-1{fill:none;stroke:#000;stroke-miterlimit:10;stroke-width:8px;}</style></defs><path class="cls-1" d="M15.092513,25.04301c13.071609,9.393786,37.338021,9.263944,49.401513-.327503"/><path class="cls-1" d="M15.092513,37.685256c13.071609,9.393786,37.338021,9.263944,49.401513-.327503"/><path class="cls-1" d="M16.175062,50.327503c13.071609,9.393786,37.338021,9.263944,49.401513-.327503"/><path class="cls-1" d="M14.449643,22.594253c.493457-10.643746,17.356119-14.164103,27.908721-13.209631,10.552603.954472,22.683314,3.866479,22.359369,13.209631"/><path class="cls-1" d="M14.449643,22.594253c-.124177,12.018182.246742,24.009814,0,37.074859,4.402998,6.47792,12.890332,11.095886,27.908721,11.095886,10.363693,0,18.52727-3.192088,22.359369-9.447345.676456-13.973351-.576394-25.459441-.064018-38.884075"/></svg>