<?xml version="1.0" encoding="UTF-8"?><svg id="oakd_lineicons" xmlns="http://www.w3.org/2000/svg" viewBox="0 0 80 80"><defs><style>.cls-1{fill:none;stroke:#000;stroke-miterlimit:10;stroke-width:8px;}</style></defs><path class="cls-1" d="M10.555471,71.351775l18.137441.32224s.01381-15.867303,8.628153-15.868888c9.082989-.001671,9.480052,16.098026,9.480052,16.098026l22.727803-.058371-.145695-26.605572-15.301304-.039853.215232-8.430062h-29.016535l.430463,8.621669-15.301304.642651.145695,25.31816Z"/><line class="cls-1" x1="10.152021" y1="18.921155" x2="10.43262" y2="42.921155"/><line class="cls-1" x1="69.847979" y1="18.442462" x2="69.336896" y2="41.949901"/><path class="cls-1" d="M41.50781,36.553437s12.760082-4.672978,12.711301-11.71326c-.02439-3.520141-2.827471-6.222642-6.099378-9.067882s-7.012638-7.583219-8.912329-7.674316c-1.647544-.079006-5.115554,3.996254-8.245359,6.418305-3.25791,2.521187-6.149362,5.230787-6.23962,9.782006-.176969,8.923479,14.088004,12.544017,14.088004,12.544017"/></svg>