<?xml version="1.0" encoding="UTF-8"?><svg id="Layer_3" xmlns="http://www.w3.org/2000/svg" viewBox="0 0 80 80"><defs><style>.cls-1{fill:none;stroke:#000;stroke-miterlimit:10;stroke-width:8px;}</style></defs><path class="cls-1" d="M41.7,16.41s.25-10.18-6.52-8.24c-5.54,1.58-6.03,15.08-9.74,31.71-3.7,16.61-5.38,29.53-10.42,28.67-5.04-.86-6.52-7.85-6.52-7.85"/><line class="cls-1" x1="12.63" y1="30.27" x2="41.95" y2="26.91"/><polyline class="cls-1" points="43.78 46.15 47.68 45.55 62.2 61.81"/><line class="cls-1" x1="46.26" y1="62.62" x2="61.78" y2="43.81"/><path class="cls-1" d="M39.51,36.96s-3.59,4.9-3.78,15.68c-.19,10.78,3.72,16.29,3.72,16.29"/><path class="cls-1" d="M66.73,68.92s3.59-4.9,3.78-15.68c.19-10.78-3.72-16.29-3.72-16.29"/></svg>