<?xml version="1.0" encoding="UTF-8"?><svg id="Layer_3" xmlns="http://www.w3.org/2000/svg" viewBox="0 0 80 80"><defs><style>.cls-1{fill:none;stroke:#000;stroke-miterlimit:10;stroke-width:8px;}</style></defs><path class="cls-1" d="M33.070487,63.773884c3.050249.107697,6.192387-.075263,9.264832-.366034,1.52538-.213858,3.594396-.455545,5.83748-.789115"/><path class="cls-1" d="M66.976381,47.097526c4.18958-17.473117-5.642096-39.092385-25.964546-37.864355-24.09473-.763465-34.629415,19.265611-28.549846,40.786928.590544,1.976959,1.365355,3.685751,2.295246,5.159405"/><path class="cls-1" d="M47.825455,49.02616s.141142,11.319638.211712,16.979457c4.575248,1.409368,12.150484,4.726891,12.150484,4.726891l10.835249-7.991072-.256246-14.354127-12.119445-5.996638-10.821754,6.635489Z"/><path class="cls-1" d="M14,43.184084l.283485,22.339658s4.802308,4.591819,9.369741,4.521016c4.567433-.070802,11.346774-3.054705,11.346774-3.054705l.33871-23.805969s-1.654352-5.390783-10.16129-6.348258c-8.506938-.957476-11.177419,6.348258-11.177419,6.348258Z"/></svg>