<?xml version="1.0" encoding="UTF-8"?><svg id="Layer_3" xmlns="http://www.w3.org/2000/svg" viewBox="0 0 80 80"><defs><style>.cls-1{fill:none;stroke:#000;stroke-miterlimit:10;stroke-width:8px;}</style></defs><polyline class="cls-1" points="72.668 51.8389 71.268 71.2892 51.668 71.7416"/><polyline class="cls-1" points="7.168 28.2416 8.568 8.7913 28.168 8.339"/><path class="cls-1" d="M21.6839,39.4548s-6.6304,5.2334-7.6233,7.7664c-.9017,2.3004-.8679,7.6944.2863,9.879,1.5141,2.8658,6.3914,7.8025,9.4495,8.8768,2.4661.8664,8.0746,1.3735,10.4517.2863,2.1748-.9947,6.7642-6.7642,6.7642-6.7642l-19.3285-20.0443Z"/><line class="cls-1" x1="23.9955" y1="44.4455" x2="35.401" y2="33.7007"/><line class="cls-1" x1="36.59" y1="57.2007" x2="47.9955" y2="46.456"/><line class="cls-1" x1="8.1905" y1="72.657" x2="19.9308" y2="62.2053"/><path class="cls-1" d="M59.3285,40s6.4753-5.2998,7.6233-7.7664c1.0426-2.2401.7275-7.6258-.2863-9.879-1.33-2.9558-6.3818-7.8304-9.4495-8.8768-2.4739-.8439-8.0731-1.3703-10.4517-.2863-2.1762.9917-6.7642,6.7642-6.7642,6.7642l19.3285,20.0443Z"/><line class="cls-1" x1="72.8218" y1="6.7978" x2="61.0816" y2="17.2495"/></svg>