<?xml version="1.0" encoding="UTF-8"?><svg id="oakd_lineicons" xmlns="http://www.w3.org/2000/svg" viewBox="0 0 80 80"><defs><style>.cls-1{fill:none;stroke:#000;stroke-miterlimit:10;stroke-width:8px;}</style></defs><path class="cls-1" d="M13.33157,35.604377c-1.105235-3.805275,6.175905-20.141869,6.175905-20.141869,0,0,10.065222-5.402783,20.357539-4.936899s12.527716,5.350379,12.527716,5.350379c0,0-3.506682,4.764062-6.133361,16.573124-1.545457,6.94809-32.229912,5.55806-32.927799,3.155266Z"/><path class="cls-1" d="M16.63654,37.147005s-14.868156,19.496245-3.52342,26.360403c11.344736,6.864157,36.178808,9.599466,51.359615-3.690432"/><path class="cls-1" d="M56.416866,41.431419c.857915-2.463661,6.401101-5.612804,9.548988-4.755933,4.088378,1.112877,8.390012,6.324707,5.870935,17.305638s-11.100118,4.242779-11.614237,2.740438-5.140633-11.456597-3.805686-15.290142Z"/><path class="cls-1" d="M52.39273,17.943383s6.916343,10.803719,9.134793,18.290142"/><line class="cls-1" x1="29.575253" y1="27.088454" x2="28.908589" y2="49.190846"/></svg>