<?xml version="1.0" encoding="UTF-8"?><svg id="Layer_3" xmlns="http://www.w3.org/2000/svg" viewBox="0 0 80 80"><defs><style>.cls-1{fill:none;stroke:#000;stroke-miterlimit:10;stroke-width:8px;}</style></defs><path class="cls-1" d="M41.7043,16.4058s.2528-10.1771-6.5182-8.24c-5.5355,1.5836-6.0304,15.0843-9.7369,31.7137-3.7021,16.6101-5.3766,29.5333-10.4195,28.6698-5.0429-.8634-6.5182-7.8537-6.5182-7.8537"/><line class="cls-1" x1="12.6271" y1="30.2665" x2="41.9461" y2="26.9132"/><polyline class="cls-1" points="43.7803 46.1461 47.6809 45.5456 62.1968 61.8053"/><line class="cls-1" x1="46.2623" y1="62.6167" x2="61.7803" y2="43.8053"/><path class="cls-1" d="M39.5056,36.9572s-3.5876,4.8986-3.7755,15.6758c-.1878,10.7772,3.72,16.2876,3.72,16.2876"/><path class="cls-1" d="M66.7294,68.9206s3.5876-4.8986,3.7755-15.6758c.1878-10.7772-3.72-16.2876-3.72-16.2876"/></svg>