<?xml version="1.0" encoding="UTF-8"?><svg id="Layer_3" xmlns="http://www.w3.org/2000/svg" viewBox="0 0 80 80"><defs><style>.cls-1{fill:none;stroke:#000;stroke-miterlimit:10;stroke-width:8px;}</style></defs><polygon points="41.914551 75 68 74.612915 67.949951 66.612915 49.462647 66.948181 41.914551 75"/><path class="cls-1" d="M16.899641,52.235194c-5.364163,2.051206-7.24878,12.415448-3.104953,15.578676,4.143827,3.163228,13.210958,3.265563,13.210958,3.265563,0,0-1.376502-1.197433-1.74413-5.790103-.231192-2.888206.756154-6.493036.76429-8.607316"/><path class="cls-1" d="M16.509593,51.395768s7.219332-10.728545,8.001346-10.903945,10.457967,8.941477,10.030703,11.434367c-.034027.19853-7.989057,5.256523-7.989057,5.256523l-10.042991-5.786945Z"/><path class="cls-1" d="M27.651606,39.76794s11.378154-13.886653,29.418568-27.632277c3.914268-2.982418,14.435986-4.482803,7.807515,3.757473-11.162214,13.876462-22.770207,25.99942-30.261832,33.466398"/></svg>