<?xml version="1.0" encoding="UTF-8"?><svg id="Layer_3" xmlns="http://www.w3.org/2000/svg" viewBox="0 0 80 80"><defs><style>.cls-1,.cls-2{fill:none;stroke:#000;stroke-miterlimit:10;stroke-width:8px;}.cls-2{stroke-linecap:round;}</style></defs><path class="cls-1" d="M12.9107,53.7071c-3.4238-7.985-4.3453-16.9795-2.6094-25.4712,1.11-5.4301,3.4231-10.8377,7.6949-14.467,2.5445-2.1618,5.6641-3.5908,8.8765-4.5844,10.2723-3.177,25.4705,2.5208,32.779,10.27.1936.2053.1265.2325.0091.4774-4.1648,8.6908-12.0252,20.9124-21.0737,26.0053-9.0486,5.0929-19.4835,7.4371-25.6763,7.7699Z"/><path class="cls-2" d="M55.0361,28.8945c1.2409-.1653,2.5142-.3295,3.7351-.0562s2.3975,1.0823,2.7265,2.2655c.5626,2.0232-1.4583,4.2664-.4927,6.138.6859,1.3294,2.5166,1.6245,4.017,1.3798,1.5004-.2447,2.9717-.8583,4.4848-.7052,1.5716.1591,3.015,1.2138,3.618,2.6437s.3401,3.1745-.659,4.373"/><path class="cls-2" d="M41.9267,43.6916c1.7138-.3358,3.498-.6705,5.1904-.2431,1.6924.4274,3.2571,1.8585,3.202,3.569-.047,1.4587-1.1822,2.6229-2.1166,3.7599-.9344,1.137-1.7538,2.6855-1.1001,3.9971.811,1.6273,3.1546,1.6235,4.9728,1.2935,1.5813-.287,3.1878-.6385,4.7825-.4347s3.2115,1.0984,3.747,2.5833c1.4063,3.8995-5.1923,7.2456-4.0335,11.2225"/><path class="cls-2" d="M35.8468,72.2805c-3.7507.2043-6.5379-3.9722-4.8383-7.253,1.1005-2.2067,4.3505-4.2186,3.1884-6.9798-2.4868-3.5175-8.156-.7965-7.8826-6.8992"/></svg>