<?xml version="1.0" encoding="UTF-8"?><svg id="Layer_3" xmlns="http://www.w3.org/2000/svg" viewBox="0 0 80 80"><defs><style>.cls-1{stroke:#858585;}.cls-1,.cls-2{fill:none;stroke-miterlimit:10;stroke-width:8px;}.cls-2{stroke:#000;}</style></defs><path class="cls-1" d="M13.131932,43.831695c9.305705,3.277178,15.94964,4.712171,26.761873,4.713326,7.768149.00083,21.589929-2.635164,27.762913-7.421023"/><path class="cls-1" d="M40.722281,11.056818c-5.103714,5.60634-8.037299,16.89598-8.660837,25.088867-1.056829,13.88606,3.598275,25.860138,10.4723,33.411133"/><path class="cls-2" d="M43.592625,11.602144c-2.953946-.377319-8.698495.93033-11.792904,1.683535-8.012361,1.950277-13.825401,7.515514-17.494895,15.002553-4.247822,8.66703-4.277175,20.09569.292722,28.5923,3.378927,6.282294,10.176105,9.98887,17.042725,11.620954,5.267769,1.252063,10.840139,1.476089,16.068049.062397,12.62297-3.41341,19.720344-11.792961,20.863555-25.554244.284634-3.426252-.301568-8.943719-1.298033-12.230049-1.778026-5.863904-6.85381-10.943297-10.334695-13.266025-3.041924-2.029817-9.734465-5.450039-13.346523-5.911421Z"/></svg>