<?xml version="1.0" encoding="UTF-8"?><svg id="Layer_3" xmlns="http://www.w3.org/2000/svg" viewBox="0 0 80 80"><defs><style>.cls-1{fill:#fff;}.cls-1,.cls-2{stroke:#000;stroke-miterlimit:10;stroke-width:8px;}.cls-2{fill:none;}</style></defs><circle class="cls-2" cx="16.5" cy="19.5" r="6.5"/><path class="cls-1" d="M31.550396,18.398417c5.782853.312977,18.25.244337,18.25.244337"/><path class="cls-2" d="M16.264416,35.20447c.120102,19.125326,5.523581,27.1289,31.75,26.671114"/><path class="cls-2" d="M65.337744,13.097732c-2.914526-1.047063-6.481744.9524-7.253965,4.065923-.242457.97756-.237542,2.015396-.027475,3.001083.617544,2.897677,3.174158,5.246952,6.013374,5.438083s5.698557-1.85148,6.480764-4.705535c.782207-2.854055-.673336-6.168759-5.212698-7.799554Z"/><path class="cls-2" d="M65.337744,55.299655c-2.914526-1.047063-6.481744.9524-7.253965,4.065923-.242457.97756-.237542,2.015396-.027475,3.001083.617544,2.897677,3.174158,5.246952,6.013374,5.438083s5.698557-1.85148,6.480764-4.705535c.782207-2.854055-.673336-6.168759-5.212698-7.799554Z"/></svg>