<?xml version="1.0" encoding="UTF-8"?><svg id="Layer_3" xmlns="http://www.w3.org/2000/svg" viewBox="0 0 80 80"><defs><style>.cls-1{fill:none;stroke:#000;stroke-miterlimit:10;stroke-width:8px;}</style></defs><polygon points="41.9146 75 68 74.6129 67.95 66.6129 49.4626 66.9482 41.9146 75"/><path class="cls-1" d="M16.8996,52.2352c-5.3642,2.0512-7.2488,12.4154-3.105,15.5787,4.1438,3.1632,13.211,3.2656,13.211,3.2656,0,0-1.3765-1.1974-1.7441-5.7901-.2312-2.8882.7562-6.493.7643-8.6073"/><path class="cls-1" d="M16.5096,51.3958s7.2193-10.7285,8.0013-10.9039,10.458,8.9415,10.0307,11.4344c-.034.1985-7.9891,5.2565-7.9891,5.2565l-10.043-5.7869Z"/><path class="cls-1" d="M27.6516,39.7679s11.3782-13.8867,29.4186-27.6323c3.9143-2.9824,14.436-4.4828,7.8075,3.7575-11.1622,13.8765-22.7702,25.9994-30.2618,33.4664"/></svg>