<?xml version="1.0" encoding="UTF-8"?><svg id="Layer_3" xmlns="http://www.w3.org/2000/svg" viewBox="0 0 80 80"><defs><style>.cls-1{fill:#fff;}.cls-1,.cls-2{stroke:#000;stroke-miterlimit:10;stroke-width:8px;}.cls-2{fill:none;}</style></defs><circle class="cls-2" cx="16" cy="17.75" r="6.25"/><path class="cls-1" d="M31.55,16.4c5.78.31,18.25.24,18.25.24"/><path class="cls-2" d="M15.76,31.7c.32,20.92,6.04,33.89,32.25,32.67"/><path class="cls-2" d="M65.34,11.1c-2.91-1.05-6.48.95-7.25,4.07-.24.98-.24,2.02-.03,3,.62,2.9,3.17,5.25,6.01,5.44s5.7-1.85,6.48-4.71c.78-2.85-.67-6.17-5.21-7.8Z"/><path class="cls-2" d="M65.34,57.8c-2.91-1.05-6.48.95-7.25,4.07-.24.98-.24,2.02-.03,3,.62,2.9,3.17,5.25,6.01,5.44s5.7-1.85,6.48-4.71c.78-2.85-.67-6.17-5.21-7.8Z"/></svg>