<?xml version="1.0" encoding="UTF-8"?><svg id="oakd_lineicons" xmlns="http://www.w3.org/2000/svg" viewBox="0 0 80 80"><defs><style>.cls-1{fill:none;stroke:#000;stroke-miterlimit:10;stroke-width:8px;}</style></defs><line class="cls-1" x1="24.020169" y1="57.220153" x2="24.377453" y2="41.044249"/><path class="cls-1" d="M31.778281,20.894513c-.267568-2.656826-1.852303-11.495374-4.248157-12.818093-2.395854-1.322719-4.425552,3.154941-6.762978,3.675051-3.933522.875263,2.173022,5.066519-1.77937,6.305075-1.206387.378044-3.751244-3.170554-4.839675,1.057486-2.926296,11.367283.723744,3.669133,1.501899,10.254639.589603,4.989796,1.771413,3.787356.256018,7.139174-1.506447,3.332024-4.504166,3.36277-3.945318,5.922181.530739,2.430681,3.474745,7.075675,10.149701,4.617353,1.525996-.56201,2.984173-1.485691,4.641774-1.413197.959572.041967,1.893652.42427,2.846562.318411,3.817503-.424088,2.554455-1.989748,4.471658-5.024551,1.682897-2.663913,3.501064-2.069998,3.364881-4.654627-.061193-1.161383-5.03331-6.760633-5.556266-9.028076-.642401-2.785336-.01779-5.527295-.100728-6.350824Z"/><path class="cls-1" d="M59.79126,48.254106c.572998,4.043823.621582,6.766968.621582,6.766968l-16.132568-.918945,1.811768-8.052734c-1.68042-.105225-3.401855-.161133-5.156738-.161133-18.11499,0-32.800049,5.820312-32.800049,13s14.685059,13,32.800049,13,32.800049-5.820312,32.800049-13c0-4.397217-5.513428-8.281494-13.944092-10.634155Z"/><path class="cls-1" d="M46.220145,45.423203s1.247708-12.156275,7.683432-11.507406c5.748048.579535,5.88722,14.335706,5.88722,14.335706"/></svg>