<?xml version="1.0" encoding="UTF-8"?><svg id="Layer_3" xmlns="http://www.w3.org/2000/svg" viewBox="0 0 80 80"><defs><style>.cls-1{fill:none;stroke:#000;stroke-miterlimit:10;stroke-width:8px;}</style></defs><circle class="cls-1" cx="40.091581" cy="39.761768" r="23.5"/><polyline class="cls-1" points="14.795819 43.089594 9.33276 39.554673 14.662844 35.244065"/><polyline class="cls-1" points="17.56945 28.033473 15.121922 22.004355 21.960534 21.530521"/><polyline class="cls-1" points="28.475727 17.290704 29.928989 10.948094 35.802632 14.48242"/><polyline class="cls-1" points="43.571536 14.747695 48.399951 10.38569 51.184152 16.649823"/><polyline class="cls-1" points="57.395911 21.322317 63.85306 20.518636 62.540785 27.246865"/><polyline class="cls-1" points="64.949155 34.638245 70.699514 37.683577 65.765407 42.442329"/><polyline class="cls-1" points="63.499395 49.877499 66.463083 55.67036 59.691791 56.738414"/><polyline class="cls-1" points="53.570209 61.529494 52.675272 67.974629 46.515943 64.965674"/><polyline class="cls-1" points="38.752757 65.378964 34.322889 70.145194 31.003328 64.147557"/><polyline class="cls-1" points="24.407089 60.033529 18.044557 61.396929 18.765435 54.57993"/></svg>