<?xml version="1.0" encoding="UTF-8"?><svg id="Layer_3" xmlns="http://www.w3.org/2000/svg" viewBox="0 0 80 80"><defs><style>.cls-1{fill:#fff;}.cls-1,.cls-2{stroke:#000;stroke-miterlimit:10;stroke-width:8px;}.cls-2{fill:none;}</style></defs><path class="cls-1" d="M39.631528,57.775919c2.755297-.080952,4.984984,3.222048,3.867539,5.729269-1.117445,2.507221-5.074674,3.080318-6.864072.994075-1.789398-2.086243-.694425-6.614902,2.996533-6.723344Z"/><path class="cls-2" d="M27.275642,52.600892c1.613621-4.319122,5.076063-8.992107,12.505441-9.060895,7.593597-.070308,11.200699,4.949644,12.91007,9.500693"/><path class="cls-2" d="M18.637768,40.508388c2.41606-5.321724,8.01251-11.539056,20.975447-11.625126,13.610429-.090369,19.409204,6.972169,21.871073,12.647186"/><path class="cls-2" d="M9.49098,28.639958c4.019702-6.969144,12.409177-14.302589,29.918367-14.413213,18.212119-.115065,26.933152,8.039604,31.099674,15.498543"/></svg>