<?xml version="1.0" encoding="UTF-8"?><svg id="Layer_3" xmlns="http://www.w3.org/2000/svg" viewBox="0 0 80 80"><defs><style>.cls-1{fill:none;stroke:#000;stroke-miterlimit:10;stroke-width:8px;}</style></defs><circle class="cls-1" cx="40" cy="40" r="10"/><polygon class="cls-1" points="34.5252 8 44.9784 8 46.0066 16.5869 50.9761 18.6478 59.2016 15.0413 64.8566 21.3956 61.9434 28.6086 63.3143 33.4173 71.8825 35.8216 71.5398 44.752 63.6571 47.8433 61.7427 51.1035 65.6192 59.1678 58.7472 66.1725 50.9354 62.4052 47.2351 63.9946 44.4745 72 34.7245 72 32.2576 64.2889 27.97 62.1109 21.0392 65.9959 13.9323 59.3443 17.75 52.4573 16.1642 47.2185 8 45.0405 7.8825 35.8578 15.4594 33.2678 17.985 27.9112 13.991 21.0831 20.2756 14.5492 27.97 18.081 32.4338 16.0797 34.5252 8"/></svg>