<?xml version="1.0" encoding="UTF-8"?><svg id="Layer_3" xmlns="http://www.w3.org/2000/svg" viewBox="0 0 80 80"><defs><style>.cls-1,.cls-2{fill:none;stroke:#000;stroke-miterlimit:10;stroke-width:8px;}.cls-2{stroke-linecap:round;}</style></defs><path class="cls-1" d="M12.910735,53.707096c-3.423848-7.984998-4.345278-16.979457-2.609383-25.471248,1.110033-5.430146,3.423078-10.837713,7.694902-14.467003,2.544498-2.161775,5.664132-3.59084,8.876481-4.584353,10.272289-3.177005,25.470452,2.520768,32.778973,10.269999.193578.205251.126469.232475.00911.477371-4.164822,8.690807-12.025184,20.912366-21.073738,26.005301-9.048553,5.092935-19.483482,7.437126-25.676345,7.769932Z"/><path class="cls-2" d="M55.036074,28.894469c1.240944-.165344,2.51423-.329542,3.735096-.056177s2.397488,1.082275,2.726499,2.265493c.562569,2.023165-1.458263,4.266418-.492682,6.137975.685877,1.329414,2.516567,1.624491,4.017,1.379757,1.500432-.244734,2.971734-.858288,4.48478-.705154,1.571556.159055,3.014967,1.213757,3.617979,2.643662s.340115,3.174516-.658965,4.372953"/><path class="cls-2" d="M41.926711,43.691591c1.713788-.335839,3.497975-.670525,5.190354-.243083,1.692379.427442,3.257057,1.858477,3.201961,3.568991-.046986,1.458731-1.182182,2.622872-2.116618,3.759904-.934436,1.137032-1.753755,2.685479-1.100056,3.997084.811035,1.62729,3.154569,1.623519,4.972848,1.293518,1.58134-.286999,3.187766-.63851,4.782515-.434703s3.211474,1.09844,3.74699,2.583349c1.406325,3.899537-5.192314,7.245647-4.033457,11.222455"/><path class="cls-2" d="M35.846768,72.280464c-3.750676.204329-6.537948-3.972163-4.8383-7.252985,1.100469-2.206732,4.35052-4.218589,3.188434-6.97982-2.486786-3.517534-8.155979-.796464-7.882593-6.899198"/></svg>