<?xml version="1.0" encoding="UTF-8"?><svg id="Layer_3" xmlns="http://www.w3.org/2000/svg" viewBox="0 0 80 80"><defs><style>.cls-1{fill:none;stroke:#000;stroke-miterlimit:10;stroke-width:8px;}</style></defs><polyline class="cls-1" points="72.667997 51.838937 71.267997 71.289247 51.667997 71.741579"/><polyline class="cls-1" points="7.167996 28.241595 8.568003 8.791286 28.168003 8.33896"/><path class="cls-1" d="M21.683928,39.454756s-6.630406,5.233407-7.623258,7.766432c-.901666,2.300386-.867881,7.694378.286349,9.87899,1.514146,2.865826,6.391448,7.802482,9.44947,8.876772,2.46615.866364,8.074598,1.373515,10.451685.286346,2.174845-.994673,6.764215-6.764215,6.764215-6.764215l-19.328462-20.044325Z"/><line class="cls-1" x1="23.995523" y1="44.445493" x2="35.401031" y2="33.70073"/><line class="cls-1" x1="36.590016" y1="57.20073" x2="47.995523" y2="46.455968"/><line class="cls-1" x1="8.190546" y1="72.65699" x2="19.930795" y2="62.205305"/><path class="cls-1" d="M59.328462,40s6.475261-5.299841,7.623258-7.766432c1.042563-2.240054.72747-7.625781-.286349-9.87899-1.329952-2.955812-6.381795-7.830364-9.44947-8.876772-2.473934-.843879-8.073114-1.370265-10.451685-.286346-2.176203.991699-6.764215,6.764215-6.764215,6.764215l19.328462,20.044325Z"/><line class="cls-1" x1="72.821844" y1="6.797766" x2="61.081595" y2="17.249451"/></svg>