<?xml version="1.0" encoding="UTF-8"?><svg id="Layer_3" xmlns="http://www.w3.org/2000/svg" viewBox="0 0 80 80"><defs><style>.cls-1{fill:#fff;stroke:#000;stroke-miterlimit:10;stroke-width:8px;}</style></defs><path class="cls-1" d="M39.8379,11.0015c2.7553-.081,4.985,3.222,3.8675,5.7293-1.1174,2.5072-5.0747,3.0803-6.8641.9941-1.7894-2.0862-.6944-6.6149,2.9965-6.7233Z"/><path class="cls-1" d="M39.8379,61.0015c2.7553-.081,4.985,3.222,3.8675,5.7293-1.1174,2.5072-5.0747,3.0803-6.8641.9941-1.7894-2.0862-.6944-6.6149,2.9965-6.7233Z"/><path class="cls-1" d="M39.8379,36.0015c2.7553-.081,4.985,3.222,3.8675,5.7293-1.1174,2.5072-5.0747,3.0803-6.8641.9941-1.7894-2.0862-.6944-6.6149,2.9965-6.7233Z"/></svg>