<?xml version="1.0" encoding="UTF-8"?><svg id="Layer_3" xmlns="http://www.w3.org/2000/svg" viewBox="0 0 80 80"><defs><style>.cls-1{fill:none;stroke:#000;stroke-miterlimit:10;stroke-width:8px;}</style></defs><path class="cls-1" d="M41.704304,16.40579s.252758-10.177061-6.518236-8.239972c-5.535482,1.583626-6.030441,15.084325-9.736882,31.713723-3.702132,16.610069-5.376592,29.533254-10.41951,28.669821-5.042917-.863433-6.518236-7.853723-6.518236-7.853723"/><line class="cls-1" x1="12.627082" y1="30.266538" x2="41.946116" y2="26.913213"/><polyline class="cls-1" points="43.780346 46.1461 47.680873 45.545589 62.196798 61.805325"/><line class="cls-1" x1="46.262288" y1="62.616744" x2="61.780346" y2="43.805325"/><path class="cls-1" d="M39.505646,36.957202s-3.587638,4.898636-3.775485,15.675843c-.187847,10.777207,3.719963,16.287583,3.719963,16.287583"/><path class="cls-1" d="M66.729395,68.920635s3.587638-4.898636,3.775485-15.675843c.187847-10.777207-3.719963-16.287583-3.719963-16.287583"/></svg>