<?xml version="1.0" encoding="UTF-8"?><svg id="Layer_3" xmlns="http://www.w3.org/2000/svg" viewBox="0 0 80 80"><defs><style>.cls-1{fill:none;stroke:#000;stroke-miterlimit:10;stroke-width:8px;}</style></defs><path class="cls-1" d="M33.0705,63.7739c3.0502.1077,6.1924-.0753,9.2648-.366,1.5254-.2139,3.5944-.4555,5.8375-.7891"/><path class="cls-1" d="M66.9764,47.0975c4.1896-17.4731-5.6421-39.0924-25.9645-37.8644-24.0947-.7635-34.6294,19.2656-28.5498,40.7869.5905,1.977,1.3654,3.6858,2.2952,5.1594"/><path class="cls-1" d="M47.8255,49.0262s.1411,11.3196.2117,16.9795c4.5752,1.4094,12.1505,4.7269,12.1505,4.7269l10.8352-7.9911-.2562-14.3541-12.1194-5.9966-10.8218,6.6355Z"/><path class="cls-1" d="M14,43.1841l.2835,22.3397s4.8023,4.5918,9.3697,4.521c4.5674-.0708,11.3468-3.0547,11.3468-3.0547l.3387-23.806s-1.6544-5.3908-10.1613-6.3483c-8.5069-.9575-11.1774,6.3483-11.1774,6.3483Z"/></svg>