<?xml version="1.0" encoding="UTF-8"?><svg id="Layer_3" xmlns="http://www.w3.org/2000/svg" viewBox="0 0 80 80"><defs><style>.cls-1{fill:none;stroke:#000;stroke-miterlimit:10;stroke-width:8px;}</style></defs><polygon class="cls-1" points="22.1987 22.8432 22.9276 57.791 55 57.534 55 22.0723 22.1987 22.8432"/><polyline class="cls-1" points="56 39.791 62.3787 39.791 68.1607 45.791 72 45.802"/><polyline class="cls-1" points="57 24.791 62.7992 24.791 68.5812 30.791 73 30.802"/><polyline class="cls-1" points="56 53.791 62.3787 53.791 68.1607 59.791 72 59.802"/><polyline class="cls-1" points="22 39.791 15.527 39.791 9.745 45.791 5 45.802"/><polyline class="cls-1" points="22 26.791 15.6065 26.791 9.8245 32.791 6 32.802"/><polyline class="cls-1" points="22 53.791 16.027 53.791 10.245 59.791 6 59.802"/><line class="cls-1" x1="26" y1="55.791" x2="25.9097" y2="71.791"/><line class="cls-1" x1="39" y1="55.791" x2="38.9097" y2="71.791"/><line class="cls-1" x1="53" y1="54.791" x2="52.9097" y2="71.791"/><line class="cls-1" x1="27" y1="8.791" x2="26.9097" y2="24.791"/><line class="cls-1" x1="53" y1="8.791" x2="52.9097" y2="24.791"/><line class="cls-1" x1="39" y1="8.791" x2="38.9097" y2="24.791"/></svg>