<?xml version="1.0" encoding="UTF-8"?><svg id="Layer_3" xmlns="http://www.w3.org/2000/svg" viewBox="0 0 80 80"><defs><style>.cls-1{fill:#fff;}.cls-1,.cls-2,.cls-3{stroke-miterlimit:10;stroke-width:8px;}.cls-1,.cls-3{stroke:#000;}.cls-2{stroke:#858585;}.cls-2,.cls-3{fill:none;}</style></defs><path class="cls-2" d="M34.8701,54.76c.7061-1.4506,1.4121-13.9063,2.1182-15.3569.5778.5414,1.1557,1.0827,1.7335,1.6241.1489.1395.3451.2953.6174.2923.2953-.0033-1.0172-.5474-.8868-.7096.6294-.7833,1.2589-1.5666,1.8883-2.3499.9371.9582,1.7349,1.9674,2.381,3.0118,1.0023-.8189.2545-1.6379,1.2568-2.4568.2273.9214.9599,1.7933,2.0523,2.4425.1278-.4316.4561-.8403.9365-1.1658.5036,1.1111.8521,13.2537,1.0404,14.401"/><path class="cls-3" d="M35.2572,55.3143c-.7353,3.9193-1.8378,13.4904-1.2238,14.0033,1.0827.9045,14.0378,1.6788,14.8498.4931.5157-.7531-.1128-9.3848-.6093-14.0102,2.2219.1239,7.5017-.9747,11.1967-4.3558,3.7985-3.4758,5.0273-7.0465,6.0432-11.9556,2.2066-10.6624-5.2954-22.5291-16.7578-26.5077-11.4624-3.9786-25.5113.4078-31.3823,9.7984-3.963,6.3387-4.1959,14.5559-.3974,21.1856,3.7985,6.6297,12.8289,10.7389,18.2809,11.3489Z"/><line class="cls-1" x1="35" y1="59" x2="47" y2="59.1908"/></svg>