<?xml version="1.0" encoding="UTF-8"?><svg id="Layer_3" xmlns="http://www.w3.org/2000/svg" viewBox="0 0 80 80"><defs><style>.cls-1{fill:#fff;stroke:#000;stroke-miterlimit:10;stroke-width:8px;}</style></defs><path class="cls-1" d="M39.837923,11.00146c2.755297-.080952,4.984984,3.222048,3.867539,5.729269-1.117445,2.507221-5.074674,3.080318-6.864072.994075-1.789398-2.086243-.694425-6.614902,2.996533-6.723344Z"/><path class="cls-1" d="M39.837923,61.00146c2.755297-.080952,4.984984,3.222048,3.867539,5.729269-1.117445,2.507221-5.074674,3.080318-6.864072.994075-1.789398-2.086243-.694425-6.614902,2.996533-6.723344Z"/><path class="cls-1" d="M39.837923,36.00146c2.755297-.080952,4.984984,3.222048,3.867539,5.729269-1.117445,2.507221-5.074674,3.080318-6.864072.994075-1.789398-2.086243-.694425-6.614902,2.996533-6.723344Z"/></svg>