<?xml version="1.0" encoding="UTF-8"?><svg id="oakd_lineicons" xmlns="http://www.w3.org/2000/svg" viewBox="0 0 80 80"><defs><style>.cls-1{fill:none;}.cls-1,.cls-2{stroke:#000;stroke-miterlimit:10;stroke-width:8px;}</style></defs><path class="cls-2" d="M12.518664,68.480982c-2.880405-2.142987-1.767961-6.735651,2.484713-10.258002,4.252674-3.522351,10.035178-4.640546,12.915583-2.49756,2.880405,2.142987,1.767961,6.735651-2.484713,10.258002-4.252674,3.522351-10.035178,4.640546-12.915583,2.49756Z"/><path class="cls-2" d="M51.518664,65.480982c-2.880405-2.142987-1.767961-6.735651,2.484713-10.258002,4.252674-3.522351,10.035178-4.640546,12.915583-2.49756,2.880405,2.142987,1.767961,6.735651-2.484713,10.258002-4.252674,3.522351-10.035178,4.640546-12.915583,2.49756Z"/><polyline class="cls-1" points="69.082278 55.571938 57.275337 10.430313 18.212378 15.990754 29.960352 58.153152"/><line class="cls-1" x1="24.777643" y1="30.67984" x2="61.697529" y2="25.383144"/></svg>