<?xml version="1.0" encoding="UTF-8"?><svg id="Layer_3" xmlns="http://www.w3.org/2000/svg" viewBox="0 0 80 80"><defs><style>.cls-1{fill:none;stroke:#000;stroke-miterlimit:10;stroke-width:8px;}</style></defs><path class="cls-1" d="M19.806826,60.306572c-2.186699,3.115081-2.112789,5.374636,2.172974,7.584192,17.427125,9.033169,46.719271-9.020544,46.7702-34.624289-1.380747-25.669011-28.336636-28.764699-42.263118-16.79877-13.173261,11.513725-18.425652,27.90677-13.298811,30.278545,4.868671,2.25234,10.50799-8.382894,13.946754-.905418,1.126635,3.843746-3.557771,9.675216-7.328,14.465741Z"/><path class="cls-1" d="M54.424471,25.010343c-2.014842-1.415064-6.16473-3.45816-6.16473-3.45816"/><path class="cls-1" d="M42.293741,21.034516c-2.324235.812358-6.403262,2.993495-6.403262,2.993495"/><path class="cls-1" d="M56.988672,37.199859c-.381125-2.432435-1.793132-6.837211-1.793132-6.837211"/><path class="cls-1" d="M51.636488,48.225107c1.562342-1.902914,3.911238-5.887698,3.911238-5.887698"/><path class="cls-1" d="M42.756841,54.891222c2.113411-1.263127,5.670533-4.219932,5.670533-4.219932"/><path class="cls-1" d="M32.595585,27.286631c-1.910496,1.553061-5.006983,4.989278-5.006983,4.989278"/></svg>