<?xml version="1.0" encoding="UTF-8"?><svg id="oakd_lineicons" xmlns="http://www.w3.org/2000/svg" viewBox="0 0 80 80"><defs><style>.cls-1{stroke-linejoin:bevel;}.cls-1,.cls-2{fill:none;stroke:#000;stroke-width:8px;}.cls-2{stroke-miterlimit:10;}</style></defs><path class="cls-2" d="M62.104355,61.637543c-8.520214,5.009452-7.273471-4.857715-7.273471-4.857715,0,0,4.015358-18.61111,11.238997-19.269139,1.829604-.166666,3.870052,5.321904,3.72864,6.957424-.476517,5.511241-2.123391,12.258636-4.65818,15.102647-1.159659,1.301128-3.482974,1.857674-4.663473,3.442525-5.09264,6.837005-8.308305,12.249325-30.222102,10.268612-6.79158-.613868-12.137364-10.355867-14.787224-16.394099-1.265991-2.884812-2.275806-9.294615-.549358-11.641702,4.333448-5.891276,25.012593-10.107908,29.150859-2.449886,4.138266,7.658022-12.792934,9.761062-12.792934,9.761062l3.621338,6.650243"/><path class="cls-1" d="M23.954672,44.435057s-11.497853-27.720629-4.940722-32.54466c4.407369-3.242468,15.153528,22.358766,15.153528,22.358766,0,0,4.198226-27.71167,10.655723-26.865777,5.210776.68258,3.046249,31.330778,3.046249,31.330778"/><path class="cls-2" d="M61.922141,37.133838s-2.163825-7.840411-9.159814-3.409876c-4.430019,2.805516-10.893453,20.705377-8.710484,23.496207,2.016988,2.578629,10.783617-1.714963,10.783617-1.714963"/></svg>